<?xml version="1.0" encoding="UTF-8"?>
<svg version="1.1" xmlns="http://www.w3.org/2000/svg" width="605" height="199">
<path d="M0 0 C199.65 0 399.3 0 605 0 C605 65.67 605 131.34 605 199 C405.35 199 205.7 199 0 199 C0 133.33 0 67.66 0 0 Z " fill="#FAFAFA" transform="translate(0,0)"/>
<path d="M0 0 C25.74 0 51.48 0 78 0 C78 6.86993359 77.82851519 11.01214678 75.4375 17.0625 C75.03313721 18.10555298 75.03313721 18.10555298 74.62060547 19.16967773 C72.71746577 23.82161502 70.61617359 27.69815275 66.90014648 31.17749023 C64.9913717 32.92899349 64.9913717 32.92899349 63.52880859 34.83618164 C59.79528256 39.0130569 56.53591474 40.41553912 50.9190979 40.84394836 C47.76075286 40.96198769 44.61493725 40.97024545 41.45507812 40.91259766 C39.00343084 40.87505254 36.56074768 40.91230893 34.109375 40.95703125 C21.09508065 40.99603745 21.09508065 40.99603745 16.0703125 36.640625 C15.00959202 35.45953239 13.9823304 34.2470504 13 33 C11.96381648 31.9528789 10.92295738 30.91033773 9.875 29.875 C2.63976158 21.17289132 0 11.05072162 0 0 Z " fill="#BE1A23" transform="translate(24,109)"/>
<path d="M0 0 C3.97401134 3.52241914 5.43561996 6.72160573 6.03125 11.8671875 C6.28165117 18.73235281 5.15204678 23.41557018 0.8125 28.875 C-3.99656554 31.32860487 -8.94869642 30.91516546 -14.25 30.4375 C-14.91 30.1075 -15.57 29.7775 -16.25 29.4375 C-16.25 34.7175 -16.25 39.9975 -16.25 45.4375 C-14.6 45.4375 -12.95 45.4375 -11.25 45.4375 C-11.25 46.0975 -11.25 46.7575 -11.25 47.4375 C-17.19 47.4375 -23.13 47.4375 -29.25 47.4375 C-29.25 46.7775 -29.25 46.1175 -29.25 45.4375 C-28.26 45.4375 -27.27 45.4375 -26.25 45.4375 C-26.25 30.9175 -26.25 16.3975 -26.25 1.4375 C-27.24 1.4375 -28.23 1.4375 -29.25 1.4375 C-29.25 0.7775 -29.25 0.1175 -29.25 -0.5625 C-25.62 -0.5625 -21.99 -0.5625 -18.25 -0.5625 C-17.92 0.7575 -17.59 2.0775 -17.25 3.4375 C-16.59 3.4375 -15.93 3.4375 -15.25 3.4375 C-14.981875 2.798125 -14.71375 2.15875 -14.4375 1.5 C-11.51741544 -3.57172581 -4.48608904 -2.15677358 0 0 Z " fill="#AF2028" transform="translate(301.25,83.5625)"/>
<path d="M0 0 C3.99336533 2.10970244 6.4396778 3.74847987 8 8 C8.30078125 11.4609375 8.30078125 11.4609375 8.3125 15.375 C8.32925781 16.66148438 8.34601563 17.94796875 8.36328125 19.2734375 C7.86943055 24.3393898 6.71432944 27.58767678 2.73828125 30.86328125 C-2.35577962 32.97793419 -7.55878268 32.16488537 -13 32 C-13.33 36.95 -13.66 41.9 -14 47 C-12.02 47 -10.04 47 -8 47 C-8 47.66 -8 48.32 -8 49 C-13.94 49 -19.88 49 -26 49 C-26 48.34 -26 47.68 -26 47 C-25.01 46.505 -25.01 46.505 -24 46 C-23.67 31.81 -23.34 17.62 -23 3 C-23.99 3 -24.98 3 -26 3 C-26 2.34 -26 1.68 -26 1 C-24.20906809 0.91913853 -22.41710372 0.86087298 -20.625 0.8125 C-19.12839844 0.76029297 -19.12839844 0.76029297 -17.6015625 0.70703125 C-16.74304688 0.80371094 -15.88453125 0.90039062 -15 1 C-14.34 1.99 -13.68 2.98 -13 4 C-12.566875 3.525625 -12.13375 3.05125 -11.6875 2.5625 C-8.2592759 -0.61178158 -4.44012985 -0.37628219 0 0 Z " fill="#A11D25" transform="translate(254,82)"/>
<path d="M0 0 C5.94 0 11.88 0 18 0 C18 0.99 18 1.98 18 3 C16.68 3 15.36 3 14 3 C14 8.61 14 14.22 14 20 C19.61 20 25.22 20 31 20 C31 14.39 31 8.78 31 3 C29.35 3 27.7 3 26 3 C26.33 2.01 26.66 1.02 27 0 C32.61 0 38.22 0 44 0 C44.495 1.485 44.495 1.485 45 3 C43.68 3 42.36 3 41 3 C41 15.54 41 28.08 41 41 C42.32 41.33 43.64 41.66 45 42 C44.505 42.99 44.505 42.99 44 44 C38.06 44 32.12 44 26 44 C26.33 43.01 26.66 42.02 27 41 C28.32 41 29.64 41 31 41 C31 35.06 31 29.12 31 23 C25.39 23 19.78 23 14 23 C14 28.94 14 34.88 14 41 C15.65 41.33 17.3 41.66 19 42 C18.67 42.66 18.34 43.32 18 44 C12.06 44 6.12 44 0 44 C0 43.01 0 42.02 0 41 C1.32 41 2.64 41 4 41 C4 28.46 4 15.92 4 3 C2.68 3 1.36 3 0 3 C0 2.01 0 1.02 0 0 Z " fill="#861922" transform="translate(133,70)"/>
<path d="M0 0 C3.64555558 -0.11755481 7.29061474 -0.18769812 10.9375 -0.25 C12.46987305 -0.30027344 12.46987305 -0.30027344 14.03320312 -0.3515625 C20.71303825 -0.43692781 26.32833705 0.22154403 32 4 C34.83598926 8.25398389 34.51925943 12.00712089 34 17 C32.39875543 20.76292473 30.45444189 22.84097382 27 25 C22.36297289 26.5456757 17.87528349 26.05735628 13 26 C13 30.95 13 35.9 13 41 C14.65 41 16.3 41 18 41 C18 41.99 18 42.98 18 44 C12.06 44 6.12 44 0 44 C0 43.01 0 42.02 0 41 C0.99 41 1.98 41 3 41 C3 28.46 3 15.92 3 3 C1.68 3 0.36 3 -1 3 C-0.67 2.01 -0.34 1.02 0 0 Z " fill="#D4262E" transform="translate(384,70)"/>
<path d="M0 0 C3.77640926 1.45025603 5.75160547 3.62740821 8 7 C8.22705078 9.4519043 8.22705078 9.4519043 8.1953125 12.32421875 C8.18886719 13.35224609 8.18242187 14.38027344 8.17578125 15.43945312 C8.15902344 16.51130859 8.14226562 17.58316406 8.125 18.6875 C8.11597656 19.77095703 8.10695313 20.85441406 8.09765625 21.97070312 C8.0740734 24.6473571 8.04116126 27.32356797 8 30 C8.99 30 9.98 30 11 30 C11 30.66 11 31.32 11 32 C9.22992286 32.08114106 7.45877902 32.13925505 5.6875 32.1875 C4.70136719 32.22230469 3.71523438 32.25710937 2.69921875 32.29296875 C0 32 0 32 -1.85546875 30.48828125 C-2.23316406 29.99714844 -2.61085938 29.50601563 -3 29 C-3.639375 29.495 -4.27875 29.99 -4.9375 30.5 C-9.04515379 32.51191206 -12.50220333 32.73005282 -17 32 C-19.5625 30.5 -19.5625 30.5 -21 28 C-21.51780134 24.73785153 -21.76881541 23.06915993 -21 20 C-16.78683311 14.61650898 -11.99605841 14.13451383 -5.4140625 13.26171875 C-4.61742187 13.17535156 -3.82078125 13.08898437 -3 13 C-2.979375 11.700625 -2.95875 10.40125 -2.9375 9.0625 C-2.92589844 8.33160156 -2.91429687 7.60070312 -2.90234375 6.84765625 C-2.79438816 4.98267859 -2.79438816 4.98267859 -4 4 C-5.99958364 3.95919217 -8.00045254 3.95745644 -10 4 C-10.144375 5.134375 -10.28875 6.26875 -10.4375 7.4375 C-11 11 -11 11 -12 12 C-14.4375 12.1875 -14.4375 12.1875 -17 12 C-19 10 -19 10 -19.4375 7.625 C-19 5 -19 5 -16.625 2.75 C-11.28645412 -0.80903059 -6.31187831 -0.6097637 0 0 Z " fill="#E5232C" transform="translate(474,82)"/>
<path d="M0 0 C1.54300781 -0.03867188 1.54300781 -0.03867188 3.1171875 -0.078125 C6.5642797 0.29792142 8.36092829 1.18898486 11.125 3.25 C13.39098448 6.64897673 13.36242654 7.81319173 13.3203125 11.79296875 C13.31386719 12.86611328 13.30742187 13.93925781 13.30078125 15.04492188 C13.28402344 16.16447266 13.26726562 17.28402344 13.25 18.4375 C13.24097656 19.56865234 13.23195312 20.69980469 13.22265625 21.86523438 C13.19906862 24.66036828 13.166153 27.45507845 13.125 30.25 C14.115 30.25 15.105 30.25 16.125 30.25 C16.125 30.91 16.125 31.57 16.125 32.25 C12.495 32.25 8.865 32.25 5.125 32.25 C4.795 30.93 4.465 29.61 4.125 28.25 C3.155625 28.91 2.18625 29.57 1.1875 30.25 C-3.07628477 32.66787795 -7.06343738 33.31820406 -11.875 32.25 C-14.93518871 29.71228253 -15.70950185 28.13265681 -16.4375 24.25 C-15.68491973 20.23623857 -13.96119172 18.83378841 -10.875 16.25 C-7.47068053 13.98045369 -5.70975798 13.88450051 -1.6875 13.625 C-0.60082031 13.55023438 0.48585937 13.47546875 1.60546875 13.3984375 C2.43691406 13.34945312 3.26835937 13.30046875 4.125 13.25 C3.465 10.28 2.805 7.31 2.125 4.25 C-0.185 4.25 -2.495 4.25 -4.875 4.25 C-5.019375 5.384375 -5.16375 6.51875 -5.3125 7.6875 C-5.875 11.25 -5.875 11.25 -6.875 12.25 C-9.3125 12.4375 -9.3125 12.4375 -11.875 12.25 C-13.875 10.25 -13.875 10.25 -14.3125 7.875 C-13.875 5.25 -13.875 5.25 -11.5625 3 C-7.61089147 0.42685957 -4.63024384 0.06928046 0 0 Z " fill="#961E26" transform="translate(203.875,81.75)"/>
<path d="M0 0 C3.36538488 1.91733083 5.23938886 3.58867007 6.625 7.3125 C6.875 11.0625 6.875 11.0625 6.625 14.3125 C5.07549732 15.86200268 3.52509406 15.52905193 1.37109375 15.62890625 C0.51708984 15.67080078 -0.33691406 15.71269531 -1.21679688 15.75585938 C-2.56354492 15.81483398 -2.56354492 15.81483398 -3.9375 15.875 C-4.83919922 15.91818359 -5.74089844 15.96136719 -6.66992188 16.00585938 C-8.90478485 16.11228142 -11.13976308 16.21429988 -13.375 16.3125 C-12.91677532 19.78191546 -12.48368317 22.98645049 -11.375 26.3125 C-5.2653855 27.47418968 -5.2653855 27.47418968 0.625 26 C2.71478966 24.4622607 2.71478966 24.4622607 3.625 22.3125 C4.285 22.3125 4.945 22.3125 5.625 22.3125 C5.0626049 25.57439156 4.2109495 27.22384848 1.625 29.3125 C-4.1833886 31.24862953 -12.87144126 31.83314181 -18.625 29.3359375 C-22.35049839 26.29965631 -24.1886032 22.99007118 -24.7109375 18.2890625 C-24.8421869 7.02786395 -24.8421869 7.02786395 -20.375 2.3125 C-14.52584902 -2.82766298 -6.9623655 -3.19162042 0 0 Z " fill="#F7222B" transform="translate(547.375,83.6875)"/>
<path d="M0 0 C6.27 0 12.54 0 19 0 C19 0.66 19 1.32 19 2 C17.68 2 16.36 2 15 2 C15.433125 2.91523437 15.86625 3.83046875 16.3125 4.7734375 C16.869375 5.96195312 17.42625 7.15046875 18 8.375 C18.556875 9.55835937 19.11375 10.74171875 19.6875 11.9609375 C21 15 21 15 21 17 C21.99 17 22.98 17 24 17 C24.12246094 16.28457031 24.24492187 15.56914063 24.37109375 14.83203125 C25.01135375 11.94887287 25.93551556 9.41407527 27.0625 6.6875 C27.42472656 5.80449219 27.78695313 4.92148438 28.16015625 4.01171875 C28.43730469 3.34785156 28.71445312 2.68398437 29 2 C27.68 2 26.36 2 25 2 C25 1.34 25 0.68 25 0 C28.63 0 32.26 0 36 0 C36 0.66 36 1.32 36 2 C34.68 2 33.36 2 32 2 C31.85232178 2.55655273 31.70464355 3.11310547 31.55249023 3.68652344 C29.54282677 10.83231355 26.81099201 17.57974611 23.86645508 24.38769531 C23.05925887 26.25750784 22.26454702 28.13229827 21.47070312 30.0078125 C20.69823242 31.80605469 20.69823242 31.80605469 19.91015625 33.640625 C19.21611694 35.25759277 19.21611694 35.25759277 18.50805664 36.90722656 C16.2733153 41.4903095 14.28354658 45.14430228 10 48 C6.4375 48.25 6.4375 48.25 3 48 C1 46 1 46 0.75 43.5 C1 41 1 41 3 39 C6.4104584 39.35899562 8.98653684 40.4355638 12 42 C12.706847 40.63484485 13.38963646 39.25722137 14.0625 37.875 C14.63677734 36.72644531 14.63677734 36.72644531 15.22265625 35.5546875 C16.77282056 30.46017767 14.76899458 26.03992328 12.49609375 21.453125 C12.00302734 20.44378906 11.50996094 19.43445313 11.00195312 18.39453125 C10.48568359 17.35683594 9.96941406 16.31914063 9.4375 15.25 C8.41197951 13.17354339 7.3896702 11.09549671 6.37109375 9.015625 C5.91661865 8.10071289 5.46214355 7.18580078 4.99389648 6.24316406 C4 4 4 4 4 2 C2.68 2 1.36 2 0 2 C0 1.34 0 0.68 0 0 Z " fill="#BA1F28" transform="translate(314,83)"/>
<path d="M0 0 C4.62 0 9.24 0 14 0 C14.16749484 3.60412994 14.33403185 7.20829971 14.5 10.8125 C14.54769531 11.83666016 14.59539062 12.86082031 14.64453125 13.91601562 C14.68964844 14.89892578 14.73476563 15.88183594 14.78125 16.89453125 C14.8440918 18.25348511 14.8440918 18.25348511 14.90820312 19.63989258 C15.07836814 24.01485321 14.80137688 28.32568053 14.5 32.6875 C14.45230469 33.38939453 14.40460938 34.09128906 14.35546875 34.81445312 C14.23787848 36.54303016 14.11905865 38.27152348 14 40 C15.65 40 17.3 40 19 40 C19 40.99 19 41.98 19 43 C13.06 43 7.12 43 1 43 C1 42.01 1 41.02 1 40 C1.99 40 2.98 40 4 40 C4 27.46 4 14.92 4 2 C2.68 2 1.36 2 0 2 C0 1.34 0 0.68 0 0 Z " fill="#CD1B24" transform="translate(383,71)"/>
<path d="M0 0 C1.97909398 -0.02686553 3.95828971 -0.04633375 5.9375 -0.0625 C7.03964844 -0.07410156 8.14179688 -0.08570312 9.27734375 -0.09765625 C12 0 12 0 13 1 C13.08871273 4.02977804 13.1151935 7.03667022 13.09765625 10.06640625 C13.0962413 10.97502914 13.09482635 11.88365204 13.09336853 12.81980896 C13.08775193 15.73407221 13.07519665 18.64825981 13.0625 21.5625 C13.05748714 23.53320202 13.05292386 25.50390524 13.04882812 27.47460938 C13.03777711 32.31643559 13.02050138 37.15820495 13 42 C13.99 42 14.98 42 16 42 C16 42.66 16 43.32 16 44 C10.72 44 5.44 44 0 44 C0 43.01 0 42.02 0 41 C0.99 41 1.98 41 3 41 C3 28.13 3 15.26 3 2 C2.01 2 1.02 2 0 2 C0 1.34 0 0.68 0 0 Z " fill="#DB252E" transform="translate(427,70)"/>
<path d="M0 0 C1.65 0.33 3.3 0.66 5 1 C5 2.98 5 4.96 5 7 C7.31 7 9.62 7 12 7 C12 7.66 12 8.32 12 9 C9.69 9 7.38 9 5 9 C5.33 17.58 5.66 26.16 6 35 C8.97 34.505 8.97 34.505 12 34 C11.34 35.32 10.68 36.64 10 38 C8.25138208 38.10853491 6.50080759 38.18583428 4.75 38.25 C3.77546875 38.29640625 2.8009375 38.3428125 1.796875 38.390625 C-1.82253364 37.885121 -2.75650771 36.84049341 -5 34 C-5.45410156 31.25097656 -5.45410156 31.25097656 -5.390625 28.140625 C-5.37773437 27.02558594 -5.36484375 25.91054687 -5.3515625 24.76171875 C-5.30128906 23.02341797 -5.30128906 23.02341797 -5.25 21.25 C-5.23195313 20.07566406 -5.21390625 18.90132812 -5.1953125 17.69140625 C-5.1481912 14.7934466 -5.08241305 11.89713582 -5 9 C-6.32 9 -7.64 9 -9 9 C-9 8.34 -9 7.68 -9 7 C-7.6078125 6.6596875 -7.6078125 6.6596875 -6.1875 6.3125 C-2.49280817 4.7911563 -1.67517239 3.53647504 0 0 Z " fill="#EE252E" transform="translate(499,76)"/>
<path d="M0 0 C6.56440607 -0.54703384 11.55699765 0.09023775 17 4 C19.66564011 7.08214638 19.976931 8.65396505 20.25 12.75 C20 16 20 16 19 17 C16.00820277 17.15327434 13.05543676 17.23165249 10.0625 17.25 C9.22525391 17.270625 8.38800781 17.29125 7.52539062 17.3125 C6.72423828 17.31765625 5.92308594 17.3228125 5.09765625 17.328125 C3.99176147 17.34214355 3.99176147 17.34214355 2.86352539 17.35644531 C1.94108032 17.18000488 1.94108032 17.18000488 1 17 C-1.32536063 13.51195905 -1.33457898 12.09859246 -1 8 C0.20706879 4.65734795 0.92056849 4.05295434 4 2 C2.68 1.34 1.36 0.68 0 0 Z " fill="#FC323A" transform="translate(534,82)"/>
<path d="M0 0 C-1 3 -1 3 -3.14097595 4.09985352 C-4.08566238 4.43944092 -5.03034882 4.77902832 -6.00366211 5.12890625 C-7.60684547 5.71466431 -7.60684547 5.71466431 -9.24241638 6.31225586 C-10.40894241 6.72483643 -11.57546844 7.13741699 -12.77734375 7.5625 C-13.97299454 7.99506104 -15.16864532 8.42762207 -16.40052795 8.87329102 C-18.94013676 9.78979929 -21.48082561 10.70186874 -24.0246582 11.60644531 C-27.25904319 12.75659681 -30.4889126 13.91878654 -33.71716976 15.08601379 C-36.81913519 16.20714799 -39.92316733 17.32250466 -43.02734375 18.4375 C-44.1756517 18.85008057 -45.32395966 19.26266113 -46.50706482 19.68774414 C-52.95505817 21.98274196 -59.419816 24.11555676 -66 26 C-53.54832165 12.989708 -28.62182953 7.30669048 -12.125 1.25 C-11.12859497 0.87186157 -11.12859497 0.87186157 -10.11206055 0.48608398 C-6.36718061 -0.84274438 -3.81876862 -1.19064269 0 0 Z " fill="#D02730" transform="translate(104,70)"/>
<path d="M0 0 C2.9375 0.375 2.9375 0.375 4.9375 2.375 C5.19628906 4.39038086 5.19628906 4.39038086 5.203125 6.83984375 C5.20570313 7.72220703 5.20828125 8.60457031 5.2109375 9.51367188 C5.20320313 10.43728516 5.19546875 11.36089844 5.1875 12.3125 C5.19523437 13.23224609 5.20296875 14.15199219 5.2109375 15.09960938 C5.20835937 15.98326172 5.20578125 16.86691406 5.203125 17.77734375 C5.20086914 18.58679443 5.19861328 19.39624512 5.19628906 20.23022461 C4.9375 22.375 4.9375 22.375 2.9375 25.375 C0 25.875 0 25.875 -3.0625 25.375 C-6.39937925 21.31916785 -6.52073488 17.3574583 -6.4375 12.3125 C-6.44910156 11.60544922 -6.46070313 10.89839844 -6.47265625 10.16992188 C-6.45480008 7.00045096 -6.2444961 4.71284027 -4.73046875 1.90234375 C-3.0625 0.375 -3.0625 0.375 0 0 Z " fill="#F9F6F6" transform="translate(291.0625,85.625)"/>
<path d="M0 0 C1.4540625 0.2165625 1.4540625 0.2165625 2.9375 0.4375 C5.71845904 4.60893856 5.26820347 8.03712668 5.25 12.9375 C5.26611328 13.80503906 5.28222656 14.67257813 5.29882812 15.56640625 C5.29947266 16.40042969 5.30011719 17.23445313 5.30078125 18.09375 C5.30525269 19.23553711 5.30525269 19.23553711 5.30981445 20.40039062 C4.8386482 22.97836521 3.99335491 23.85697128 1.9375 25.4375 C-0.5625 25.875 -0.5625 25.875 -3.0625 25.4375 C-5.86543202 22.86926324 -6.0755243 21.30776772 -6.4609375 17.46875 C-6.46887314 15.95833398 -6.46057699 14.44776057 -6.4375 12.9375 C-6.44910156 12.17824219 -6.46070313 11.41898438 -6.47265625 10.63671875 C-6.45533185 7.33930758 -6.29227725 4.86942733 -4.73046875 1.93359375 C-3.0625 0.4375 -3.0625 0.4375 0 0 Z " fill="#F9F7F7" transform="translate(247.0625,85.5625)"/>
<path d="M0 0 C0.57621094 0.21785156 1.15242188 0.43570313 1.74609375 0.66015625 C0.36064657 4.8164978 -2.55472377 6.16383361 -6.06640625 8.47265625 C-7.53196685 9.45726716 -8.99677586 10.44299748 -10.4609375 11.4296875 C-11.24033691 11.95256348 -12.01973633 12.47543945 -12.82275391 13.01416016 C-17.00279377 15.84422932 -21.12504579 18.75618044 -25.25390625 21.66015625 C-26.93984411 22.84021538 -28.62604062 24.01990506 -30.3125 25.19921875 C-33.53957522 27.45684339 -36.7598935 29.72367493 -39.9765625 31.99609375 C-41.42294289 33.00944893 -42.86954537 34.02248723 -44.31640625 35.03515625 C-44.97705078 35.50566406 -45.63769531 35.97617188 -46.31835938 36.4609375 C-50.91298205 39.66015625 -50.91298205 39.66015625 -54.25390625 39.66015625 C-49.79557916 34.99460393 -45.21739774 30.8941919 -40.00390625 27.09765625 C-39.32569824 26.59661377 -38.64749023 26.09557129 -37.94873047 25.5793457 C-36.49014864 24.50283633 -35.02964118 23.42893195 -33.56738281 22.35742188 C-31.15248495 20.58574924 -28.74552771 18.80369167 -26.33984375 17.01953125 C-22.34287045 14.05721179 -18.33307667 11.11296551 -14.31689453 8.17675781 C-12.52388944 6.85863383 -10.74392966 5.52554169 -8.96875 4.18359375 C-8.09347656 3.53648438 -7.21820313 2.889375 -6.31640625 2.22265625 C-5.60613281 1.68769531 -4.89585938 1.15273438 -4.1640625 0.6015625 C-2.25390625 -0.33984375 -2.25390625 -0.33984375 0 0 Z " fill="#D82932" transform="translate(85.25390625,53.33984375)"/>
<path d="M0 0 C7 0 7 0 9.4375 1.9375 C11.56017497 6.09794294 11.77956242 9.41906619 11 14 C9.4375 17.5625 9.4375 17.5625 7 20 C4.69 20 2.38 20 0 20 C0 13.4 0 6.8 0 0 Z " fill="#F9F3F3" transform="translate(397,73)"/>
<path d="M0 0 C3.74870508 0.02961062 6.29993088 0.69557822 9.75 2.1875 C10.74 2.14625 11.73 2.105 12.75 2.0625 C15.75 2.1875 15.75 2.1875 18 4 C21.85692748 7.0680105 26.03054525 7.97785335 30.75 9.1875 C30.75 9.8475 30.75 10.5075 30.75 11.1875 C28.83247047 11.12720033 26.91582574 11.03833293 25 10.9375 C23.93265625 10.89109375 22.8653125 10.8446875 21.765625 10.796875 C18.18526204 10.07338197 17.15781589 8.8308631 14.75 6.1875 C11.19384783 5.81706748 8.15980136 6.13833035 4.75 7.1875 C5.08 5.8675 5.41 4.5475 5.75 3.1875 C0.34281183 2.60815841 -2.35649656 2.84529917 -6.75 6.1875 C-7.93193081 7.16941175 -9.10423174 8.16362198 -10.25 9.1875 C-10.25 7.8675 -10.25 6.5475 -10.25 5.1875 C-15.06122847 6.71305966 -15.06122847 6.71305966 -18.25 10.1875 C-21.81454416 11.55847852 -25.48355995 11.25993154 -29.25 11.1875 C-26.79250704 8.73000704 -24.56461755 8.14578531 -21.3203125 7.06640625 C-19.1661371 6.25937484 -19.1661371 6.25937484 -17.31640625 4.66015625 C-14.87416666 2.91965658 -13.00616689 2.54079152 -10.0625 2.0625 C-6.26254074 1.42824618 -3.82013645 0.03162365 0 0 Z " fill="#B23139" transform="translate(61.25,95.8125)"/>
<path d="M0 0 C2.67927341 4.01891012 2.15601248 6.24161923 2 11 C-1.63 11 -5.26 11 -9 11 C-9.17754126 7.09409237 -9.20731737 4.31097606 -7 1 C-4.46578263 -0.26710868 -2.80561762 -0.28056176 0 0 Z " fill="#FAF0F1" transform="translate(542,85)"/>
<path d="M0 0 C1.175625 0.0825 2.35125 0.165 3.5625 0.25 C5.9919516 3.8941774 5.72429575 5.96241272 5.5625 10.25 C3.03774538 11.51237731 1.25049534 11.34856404 -1.5625 11.3125 C-2.47257813 11.30347656 -3.38265625 11.29445313 -4.3203125 11.28515625 C-5.01898438 11.27355469 -5.71765625 11.26195313 -6.4375 11.25 C-6.12967504 9.60328588 -5.81610766 7.95764424 -5.5 6.3125 C-5.32597656 5.39597656 -5.15195313 4.47945313 -4.97265625 3.53515625 C-4.12464487 -0.08591425 -3.93439055 0.28613749 0 0 Z " fill="#F2E8E9" transform="translate(202.4375,84.75)"/>
<path d="M0 0 C3.0625 0.1875 3.0625 0.1875 5.0625 2.1875 C5.39002234 4.90204956 5.1933425 7.43980759 5.0625 10.1875 C3.32293342 11.92706658 0.8688378 11.55940386 -1.5 11.75 C-3.01787109 11.87568359 -3.01787109 11.87568359 -4.56640625 12.00390625 C-5.34886719 12.06449219 -6.13132812 12.12507813 -6.9375 12.1875 C-6.9375 11.5275 -6.9375 10.8675 -6.9375 10.1875 C-7.5975 9.8575 -8.2575 9.5275 -8.9375 9.1875 C-7.6175 8.8575 -6.2975 8.5275 -4.9375 8.1875 C-4.793125 7.053125 -4.64875 5.91875 -4.5 4.75 C-3.78817873 0.24179864 -3.78817873 0.24179864 0 0 Z " fill="#F9F0F1" transform="translate(466.9375,84.8125)"/>
<path d="M0 0 C1.09570312 0.00902344 2.19140625 0.01804687 3.3203125 0.02734375 C4.16335938 0.03894531 5.00640625 0.05054687 5.875 0.0625 C5.875 0.3925 5.875 0.7225 5.875 1.0625 C4.225 1.3925 2.575 1.7225 0.875 2.0625 C0.875 2.3925 0.875 2.7225 0.875 3.0625 C-0.775 3.3925 -2.425 3.7225 -4.125 4.0625 C-4.269375 5.196875 -4.41375 6.33125 -4.5625 7.5 C-5.125 11.0625 -5.125 11.0625 -6.125 12.0625 C-8.5625 12.25 -8.5625 12.25 -11.125 12.0625 C-13.125 10.0625 -13.125 10.0625 -13.5625 7.6875 C-13.125 5.0625 -13.125 5.0625 -10.75 2.8125 C-6.78244624 0.16746416 -4.7670616 -0.05071342 0 0 Z " fill="#E4323A" transform="translate(468.125,81.9375)"/>
<path d="M0 0 C1.0828125 0.37125 1.0828125 0.37125 2.1875 0.75 C1.74929109 5.30737263 1.33708831 8.32653445 -1.8125 11.75 C-6.6875 10.875 -6.6875 10.875 -7.8125 9.75 C-8.1875 6.9375 -8.1875 6.9375 -7.8125 3.75 C-5.19378596 0.83200436 -3.97850732 -0.3536451 0 0 Z " fill="#F2E8E9" transform="translate(205.8125,98.25)"/>
<path d="M0 0 C0.31293706 8.13636364 0.31293706 8.13636364 -2 11 C-4.87939419 11.93580311 -6.25509788 12.37245106 -9 11 C-9.48461538 4.7 -9.48461538 4.7 -7.3125 1.5625 C-4.61589191 -0.25953249 -3.18873549 -0.35430394 0 0 Z " fill="#F9EEEF" transform="translate(472,98)"/>
<path d="M0 0 C3.63 0 7.26 0 11 0 C11 0.66 11 1.32 11 2 C9.68 2 8.36 2 7 2 C6.81824219 2.67546875 6.63648438 3.3509375 6.44921875 4.046875 C6.19785156 4.93890625 5.94648438 5.8309375 5.6875 6.75 C5.44386719 7.63171875 5.20023437 8.5134375 4.94921875 9.421875 C3.96807895 12.08669915 2.906176 13.90271638 1 16 C0.34 16 -0.32 16 -1 16 C0.54269924 11.27934033 2.07794619 6.58335908 4 2 C2.68 2 1.36 2 0 2 C0 1.34 0 0.68 0 0 Z " fill="#C32F37" transform="translate(339,83)"/>
<path d="M0 0 C0.66 0.33 1.32 0.66 2 1 C-0.4573244 6.25061112 -4.32467598 8.69700384 -9 11.8125 C-9.72445312 12.31458984 -10.44890625 12.81667969 -11.1953125 13.33398438 C-16.60206207 17 -16.60206207 17 -20 17 C-13.92810397 10.50448331 -7.09841692 5.30513265 0 0 Z " fill="#A92C34" transform="translate(51,76)"/>
<path d="M0 0 C5.37886413 -0.50035945 5.37886413 -0.50035945 8.25 1.8125 C12.10692748 4.8805105 16.28054525 5.79035335 21 7 C21 7.66 21 8.32 21 9 C19.08247047 8.93970033 17.16582574 8.85083293 15.25 8.75 C14.18265625 8.70359375 13.1153125 8.6571875 12.015625 8.609375 C8.42452352 7.88371201 7.35542758 6.72217178 5 4 C3.34338239 2.98343919 1.67888441 1.97934924 0 1 C0 0.67 0 0.34 0 0 Z " fill="#E9363E" transform="translate(71,98)"/>
<path d="M0 0 C6.625 -0.25 6.625 -0.25 10 2 C11.9896995 2.39013716 13.99019869 2.73202649 16 3 C13.3144406 5.6855594 10.62378672 6.06049974 7 7 C7.33 5.68 7.66 4.36 8 3 C5.03 2.67 2.06 2.34 -1 2 C-0.67 1.34 -0.34 0.68 0 0 Z " fill="#C9242D" transform="translate(59,96)"/>
<path d="M0 0 C0.66 0.33 1.32 0.66 2 1 C-0.42038217 4.75159236 -0.42038217 4.75159236 -2.75 5.75 C-5.84225145 6.09358349 -8.89220346 6.05976532 -12 6 C-9.91985734 3.91985734 -8.71771493 3.3916977 -6 2.4375 C-3.92302028 1.70063036 -1.97249813 0.98624907 0 0 Z " fill="#972A32" transform="translate(44,101)"/>
<path d="M0 0 C5.61 0 11.22 0 17 0 C17.33 0.99 17.66 1.98 18 3 C16.68 3 15.36 3 14 3 C14 2.34 14 1.68 14 1 C11.87465341 1.14069196 9.74972471 1.28770921 7.625 1.4375 C6.44164062 1.51871094 5.25828125 1.59992188 4.0390625 1.68359375 C1.08481099 1.81084936 1.08481099 1.81084936 -1 3 C-0.67 2.01 -0.34 1.02 0 0 Z " fill="#A0444B" transform="translate(160,70)"/>
<path d="M0 0 C0.66 0.33 1.32 0.66 2 1 C-0.42195448 3.87255066 -2.59742703 4.70838919 -6.1875 5.6875 C-7.08855469 5.93886719 -7.98960938 6.19023438 -8.91796875 6.44921875 C-9.60503906 6.63097656 -10.29210938 6.81273438 -11 7 C-8.84658594 4.65082102 -6.78332063 3.17556996 -3.9375 1.75 C-3.24527344 1.39421875 -2.55304687 1.0384375 -1.83984375 0.671875 C-1.23269531 0.45015625 -0.62554687 0.2284375 0 0 Z " fill="#992F37" transform="translate(49,89)"/>
<path d="M0 0 C0.66 0 1.32 0 2 0 C1.43850643 3.25666272 0.62770014 4.95623323 -2 7 C-4.1875 7.6875 -4.1875 7.6875 -6 8 C-6 7.01 -6 6.02 -6 5 C-4.36368108 3.95107762 -2.69514137 2.95093297 -1 2 C-0.67 1.34 -0.34 0.68 0 0 Z " fill="#FD323A" transform="translate(551,106)"/>
<path d="M0 0 C3.63 0 7.26 0 11 0 C11 0.66 11 1.32 11 2 C6.98195309 2.84098656 3.98196457 3.05404945 0 2 C0 1.34 0 0.68 0 0 Z " fill="#BF1D25" transform="translate(339,83)"/>
<path d="M0 0 C0 0.99 0 1.98 0 3 C-1.53125 4.38671875 -1.53125 4.38671875 -3.5 5.6875 C-4.47453125 6.34298828 -4.47453125 6.34298828 -5.46875 7.01171875 C-5.9740625 7.33785156 -6.479375 7.66398437 -7 8 C-7.66 7.67 -8.32 7.34 -9 7 C-7.88121617 5.82737096 -6.75476949 4.66204862 -5.625 3.5 C-4.68527344 2.52546875 -4.68527344 2.52546875 -3.7265625 1.53125 C-2 0 -2 0 0 0 Z " fill="#983139" transform="translate(40,86)"/>
<path d="M0 0 C0.99 0.33 1.98 0.66 3 1 C2.34 2.98 1.68 4.96 1 7 C0.01 7 -0.98 7 -2 7 C-1.34 4.69 -0.68 2.38 0 0 Z " fill="#C1333B" transform="translate(330,116)"/>
</svg>
