<?xml version="1.0" standalone="no"?>
<!DOCTYPE svg PUBLIC "-//W3C//DTD SVG 20010904//EN"
 "http://www.w3.org/TR/2001/REC-SVG-20010904/DTD/svg10.dtd">
<svg version="1.0" xmlns="http://www.w3.org/2000/svg"
 width="107.000000pt" height="100.000000pt" viewBox="0 0 107.000000 100.000000"
 preserveAspectRatio="xMidYMid meet">
<metadata>
Created by potrace 1.10, written by Peter Selinger 2001-2011
</metadata>
<g transform="translate(0.000000,100.000000) scale(0.100000,-0.100000)"
fill="#ee2f2f" stroke="none">
<path d="M576 855 c-226 -165 -306 -228 -345 -269 -45 -47 -33 -46 32 3 29 22
153 110 277 196 124 86 225 161 225 168 0 31 -43 9 -189 -98z"/>
<path d="M755 756 c-189 -72 -300 -118 -401 -168 -88 -43 -115 -70 -41 -41 23
10 173 65 332 123 204 74 290 109 290 120 0 28 -39 20 -180 -34z"/>
<path d="M465 530 c-22 -11 -51 -20 -66 -20 -14 0 -41 -10 -60 -23 -19 -12
-53 -28 -76 -35 -24 -7 -43 -17 -43 -21 0 -11 104 8 108 20 4 11 56 39 72 39
5 0 10 -10 10 -21 0 -19 4 -18 40 15 41 36 79 46 110 26 12 -7 12 -12 2 -22
-22 -22 -13 -29 18 -13 42 21 78 19 103 -8 16 -18 38 -26 80 -31 65 -7 78 7
20 23 -21 6 -44 11 -52 11 -7 0 -27 12 -44 26 -23 19 -38 24 -59 20 -19 -4
-39 1 -61 14 -40 25 -53 25 -102 0z"/>
<path d="M140 382 c0 -98 68 -239 152 -317 l59 -55 181 0 180 0 68 66 c43 41
76 83 89 114 26 60 51 155 51 192 l0 28 -390 0 -390 0 0 -28z m735 -12 c10 -9
10 -22 -2 -67 -23 -87 -55 -143 -121 -205 l-61 -58 -161 0 -161 0 -55 52 c-57
53 -118 159 -130 225 -5 28 -3 39 10 49 23 16 662 20 681 4z"/>
</g>
</svg>
